<svg width="100" height="40" viewBox="0 0 100 40" fill="none" xmlns="http://www.w3.org/2000/svg">
<path d="M96 0H4C1.79086 0 0 1.79086 0 4V36C0 38.2092 1.79086 40 4 40H96C98.2092 40 100 38.2092 100 36V4C100 1.79086 98.2092 0 96 0Z" fill="white"/>
<path d="M21.2424 23.2914C21.2424 23.2914 21.9618 25.4182 25.326 27.5286C25.326 27.5286 24.347 28.7414 23.8448 29.1946C21.2424 28.2152 20.1316 27.286 18.5013 24.5604C18.4925 24.461 21.2424 23.2914 21.2424 23.2914Z" fill="#E3E22E"/>
<path d="M21.3386 17.9227C21.3386 17.9227 20.0998 20.922 21.255 23.3112C21.255 23.3112 18.566 24.634 18.501 24.5604C18.3761 24.4188 17.1895 20.8754 17.7491 18.1109C18.476 18.0505 21.3386 17.9227 21.3386 17.9227Z" fill="#F57B00"/>
<path d="M24.2878 14.4081C24.2878 14.4081 22.386 15.1783 21.2506 18.1427C21.2506 18.1427 18.1193 18.1093 17.7396 18.1427C17.7396 18.1427 18.1965 15.1695 20.4808 12.4792L24.2878 14.4081Z" fill="#F93B00"/>
<path d="M29.0838 13.2379C29.0838 13.2379 26.826 12.9865 24.1864 14.4586C24.1864 14.4586 21.7672 13.2208 20.43 12.5297C20.43 12.5297 23.0696 8.51952 29.0838 7.41162V10.2718V11.8608V13.2379Z" fill="#CA0000"/>
<path d="M29.7432 7.2L37.5486 9.21556L29.7432 13.4528V7.2Z" fill="#BB0000"/>
<path d="M36.9696 9.34392L29.6146 9.07988L29.6104 9.29024L36.9696 9.34392Z" fill="white"/>
<path d="M36.9796 9.43022L29.6214 11.2095L29.674 11.4133L36.9796 9.43022Z" fill="white"/>
<path d="M44.2274 36.872C44.1834 37.248 44.0442 37.5386 43.8098 37.7436C43.5772 37.9472 43.267 38.0488 42.8796 38.0488C42.4598 38.0488 42.1228 37.8982 41.869 37.5972C41.6166 37.296 41.4906 36.8932 41.4906 36.3886V36.0468C41.4906 35.7164 41.5492 35.426 41.6664 35.1752C41.7852 34.9246 41.9528 34.7326 42.1692 34.5992C42.3858 34.464 42.6364 34.3964 42.9212 34.3964C43.2988 34.3964 43.6016 34.5022 43.8294 34.7138C44.0572 34.9238 44.19 35.2152 44.2274 35.5878H43.7562C43.7154 35.3046 43.6268 35.0996 43.49 34.9726C43.355 34.8458 43.1654 34.7822 42.9212 34.7822C42.6218 34.7822 42.3866 34.893 42.2156 35.1142C42.0464 35.3356 41.9618 35.6506 41.9618 36.059V36.4034C41.9618 36.789 42.0422 37.0958 42.2034 37.3238C42.3646 37.5516 42.59 37.6656 42.8796 37.6656C43.1402 37.6656 43.3394 37.607 43.4778 37.4898C43.6178 37.371 43.7106 37.165 43.7562 36.872H44.2274ZM46.4294 38C46.4034 37.948 46.3822 37.8552 46.366 37.7216C46.156 37.9398 45.9054 38.0488 45.614 38.0488C45.3536 38.0488 45.1396 37.9756 44.972 37.8292C44.806 37.681 44.723 37.4938 44.723 37.2676C44.723 36.9926 44.8272 36.7792 45.0354 36.628C45.2454 36.475 45.54 36.3984 45.9192 36.3984H46.3586V36.191C46.3586 36.033 46.3114 35.9078 46.217 35.815C46.1226 35.7206 45.9836 35.6734 45.7996 35.6734C45.6384 35.6734 45.5034 35.714 45.3944 35.7954C45.2852 35.8768 45.2308 35.9752 45.2308 36.0908H44.7766C44.7766 35.959 44.823 35.832 44.9158 35.71C45.0102 35.5862 45.1372 35.4886 45.2966 35.417C45.4578 35.3454 45.6344 35.3096 45.8264 35.3096C46.1308 35.3096 46.3692 35.386 46.5418 35.539C46.7144 35.6904 46.8038 35.8996 46.8104 36.1666V37.3824C46.8104 37.6248 46.8412 37.8178 46.9032 37.961V38H46.4294ZM45.68 37.6558C45.8216 37.6558 45.9558 37.6192 46.0828 37.5458C46.2098 37.4726 46.3018 37.3774 46.3586 37.2602V36.7182H46.0046C45.4514 36.7182 45.1746 36.8802 45.1746 37.2042C45.1746 37.3458 45.2218 37.4564 45.3162 37.5362C45.4106 37.6158 45.5318 37.6558 45.68 37.6558ZM48.1312 34.7188V35.3584H48.6244V35.7076H48.1312V37.3458C48.1312 37.4514 48.1532 37.5312 48.197 37.585C48.241 37.637 48.3158 37.663 48.4216 37.663C48.4738 37.663 48.5454 37.6534 48.6366 37.6338V38C48.5178 38.0326 48.4022 38.0488 48.2898 38.0488C48.088 38.0488 47.9358 37.9878 47.8334 37.8658C47.7308 37.7436 47.6794 37.5704 47.6794 37.3458V35.7076H47.1986V35.3584H47.6794V34.7188H48.1312ZM50.2502 38.0488C49.8922 38.0488 49.6008 37.9316 49.3762 37.6972C49.1516 37.4612 49.0394 37.1464 49.0394 36.7524V36.6694C49.0394 36.4074 49.089 36.1738 49.1882 35.9688C49.2892 35.762 49.4292 35.601 49.6082 35.4854C49.7888 35.3682 49.9842 35.3096 50.1942 35.3096C50.5376 35.3096 50.8044 35.4226 50.995 35.649C51.1854 35.8752 51.2806 36.199 51.2806 36.6206V36.8086H49.491C49.4976 37.069 49.5732 37.2798 49.718 37.441C49.8646 37.6004 50.05 37.6802 50.2748 37.6802C50.4342 37.6802 50.5694 37.6476 50.68 37.5826C50.7906 37.5174 50.8876 37.4312 50.9706 37.3238L51.2464 37.5386C51.025 37.8788 50.693 38.0488 50.2502 38.0488ZM50.1942 35.6806C50.0118 35.6806 49.8588 35.7474 49.7352 35.8808C49.6114 36.0126 49.535 36.1982 49.5056 36.4376H50.829V36.4034C50.8158 36.1738 50.754 35.9964 50.6434 35.871C50.5326 35.7442 50.383 35.6806 50.1942 35.6806ZM53.0824 35.7636C53.014 35.7522 52.94 35.7466 52.8602 35.7466C52.564 35.7466 52.363 35.8728 52.2572 36.125V38H51.8054V35.3584H52.245L52.2522 35.6636C52.4004 35.4276 52.6104 35.3096 52.8822 35.3096C52.97 35.3096 53.0368 35.321 53.0824 35.3438V35.7636ZM53.9906 38H53.5388V35.3584H53.9906V38ZM53.5022 34.6578C53.5022 34.5844 53.5242 34.5226 53.5682 34.4722C53.6138 34.4218 53.6804 34.3964 53.7684 34.3964C53.8562 34.3964 53.923 34.4218 53.9686 34.4722C54.0142 34.5226 54.037 34.5844 54.037 34.6578C54.037 34.731 54.0142 34.792 53.9686 34.8408C53.923 34.8896 53.8562 34.914 53.7684 34.914C53.6804 34.914 53.6138 34.8896 53.5682 34.8408C53.5242 34.792 53.5022 34.731 53.5022 34.6578ZM55.1428 35.3584L55.1576 35.6904C55.3594 35.4366 55.623 35.3096 55.9486 35.3096C56.5068 35.3096 56.7884 35.6246 56.7932 36.2544V38H56.3416V36.252C56.34 36.0616 56.296 35.9208 56.2098 35.8296C56.1252 35.7384 55.9924 35.6928 55.8118 35.6928C55.6654 35.6928 55.5368 35.732 55.426 35.81C55.3154 35.8882 55.2292 35.9908 55.1672 36.1176V38H54.7156V35.3584H55.1428ZM57.367 36.6572C57.367 36.2454 57.4622 35.9182 57.6526 35.6758C57.843 35.4316 58.0954 35.3096 58.4094 35.3096C58.7318 35.3096 58.9832 35.4236 59.1638 35.6514L59.1858 35.3584H59.5984V37.9366C59.5984 38.2784 59.4968 38.5476 59.2932 38.7446C59.0914 38.9416 58.8196 39.04 58.4778 39.04C58.2874 39.04 58.101 38.9994 57.9188 38.918C57.7364 38.8366 57.5972 38.725 57.5012 38.5834L57.7356 38.3124C57.9294 38.5518 58.1662 38.6714 58.446 38.6714C58.6658 38.6714 58.8368 38.6096 58.9588 38.4858C59.0824 38.3622 59.1444 38.188 59.1444 37.9634V37.7364C58.9636 37.9446 58.717 38.0488 58.4046 38.0488C58.0954 38.0488 57.8446 37.9244 57.6526 37.6752C57.4622 37.4262 57.367 37.087 57.367 36.6572ZM57.821 36.7084C57.821 37.0064 57.8822 37.2408 58.0042 37.4116C58.1262 37.5808 58.2972 37.6656 58.5168 37.6656C58.8018 37.6656 59.0108 37.5362 59.1444 37.2774V36.0712C59.006 35.819 58.7984 35.6928 58.5218 35.6928C58.302 35.6928 58.1304 35.7784 58.0066 35.9492C57.883 36.1202 57.821 36.3732 57.821 36.7084Z" fill="#E21616"/>
<path d="M33.9892 28.5042C33.9892 27.9416 33.79 27.508 33.3916 27.2034C32.999 26.8986 32.2872 26.591 31.2558 26.2804C30.2246 25.97 29.4042 25.6242 28.795 25.2434C27.629 24.511 27.0458 23.5558 27.0458 22.3782C27.0458 21.3468 27.4648 20.4973 28.3028 19.8293C29.1464 19.1613 30.2392 18.8273 31.581 18.8273C32.4716 18.8273 33.2656 18.9914 33.9628 19.3195C34.6602 19.6477 35.208 20.1164 35.6064 20.7258C36.0048 21.3292 36.2042 22.0002 36.2042 22.7384H33.9892C33.9892 22.0706 33.7784 21.549 33.3564 21.174C32.9404 20.7932 32.3428 20.6028 31.5634 20.6028C30.837 20.6028 30.2714 20.758 29.8672 21.0686C29.4688 21.3792 29.2696 21.8126 29.2696 22.3694C29.2696 22.838 29.4864 23.2306 29.92 23.547C30.3536 23.8576 31.0684 24.1624 32.0644 24.4612C33.0606 24.7542 33.8604 25.091 34.4638 25.4718C35.0674 25.8468 35.5098 26.2804 35.791 26.7726C36.0722 27.259 36.2128 27.8302 36.2128 28.4866C36.2128 29.553 35.8028 30.4026 34.9824 31.0354C34.168 31.6624 33.0606 31.9758 31.6602 31.9758C30.7344 31.9758 29.8818 31.8058 29.1026 31.466C28.3292 31.1204 27.7256 30.6458 27.292 30.0422C26.8642 29.4386 26.6504 28.7356 26.6504 27.9328H28.874C28.874 28.6594 29.1142 29.2218 29.5948 29.6204C30.0752 30.0188 30.7636 30.218 31.6602 30.218C32.4336 30.218 33.0136 30.0626 33.4004 29.7522C33.793 29.4358 33.9892 29.0198 33.9892 28.5042ZM46.2852 27.1418C46.2852 28.6124 45.9512 29.7874 45.2832 30.6662C44.6152 31.5392 43.7188 31.9758 42.5938 31.9758C41.5508 31.9758 40.7158 31.633 40.0888 30.9474V35.4562H37.9532V22.2902H39.9218L40.0098 23.257C40.6368 22.4954 41.4892 22.1144 42.5674 22.1144C43.7276 22.1144 44.6358 22.548 45.292 23.4152C45.9542 24.2766 46.2852 25.4748 46.2852 27.01V27.1418ZM44.1582 26.9572C44.1582 26.008 43.9678 25.255 43.587 24.6984C43.212 24.1418 42.6728 23.8634 41.9698 23.8634C41.0966 23.8634 40.4698 24.2238 40.0888 24.9446V29.1632C40.4756 29.9016 41.1084 30.2708 41.9874 30.2708C42.667 30.2708 43.1972 29.9982 43.5782 29.4534C43.9648 28.9026 44.1582 28.0706 44.1582 26.9572ZM56.4892 30.2708C57.0224 30.2708 57.4648 30.1154 57.8164 29.8048C58.168 29.4944 58.3554 29.1106 58.379 28.6536H60.3916C60.3682 29.2454 60.1836 29.799 59.8378 30.3146C59.4922 30.8244 59.0234 31.2288 58.4316 31.5276C57.8398 31.8264 57.2012 31.9758 56.5156 31.9758C55.1856 31.9758 54.1308 31.5452 53.3516 30.6838C52.5722 29.8224 52.1826 28.633 52.1826 27.1154V26.8958C52.1826 25.4484 52.5694 24.2912 53.3428 23.424C54.1162 22.551 55.1708 22.1144 56.5068 22.1144C57.6376 22.1144 58.5576 22.4456 59.2666 23.1076C59.9814 23.7638 60.3564 24.6282 60.3916 25.7004H58.379C58.3554 25.1554 58.168 24.7072 57.8164 24.3556C57.4708 24.0042 57.0284 23.8284 56.4892 23.8284C55.7978 23.8284 55.2646 24.0802 54.8896 24.5842C54.5146 25.0822 54.3242 25.841 54.3184 26.8606V27.2034C54.3184 28.2346 54.503 29.005 54.872 29.5148C55.247 30.0188 55.7862 30.2708 56.4892 30.2708ZM65.331 28.7414L67.2646 22.2902H69.541L65.7618 33.2414C65.1816 34.841 64.1972 35.6408 62.8086 35.6408C62.498 35.6408 62.1552 35.588 61.7802 35.4826V33.8302L62.1846 33.8566C62.7236 33.8566 63.128 33.757 63.3974 33.5578C63.6728 33.3644 63.8896 33.0364 64.0478 32.5734L64.3554 31.756L61.0156 22.2902H63.3184L65.331 28.7414ZM71.6504 31.8V23.8722H70.2002V22.2902H71.6504V21.4202C71.6504 20.3654 71.9434 19.551 72.5292 18.9768C73.1152 18.4025 73.9356 18.1154 74.9902 18.1154C75.3652 18.1154 75.7636 18.1682 76.1856 18.2736L76.1328 19.9436C75.8984 19.8967 75.626 19.8732 75.3154 19.8732C74.2958 19.8732 73.7862 20.3977 73.7862 21.4464V22.2902H75.7198V23.8722H73.7862V31.8H71.6504ZM80.6064 28.7414L82.54 22.2902H84.8164L81.0372 33.2414C80.457 34.841 79.4726 35.6408 78.084 35.6408C77.7734 35.6408 77.4306 35.588 77.0556 35.4826V33.8302L77.46 33.8566C77.999 33.8566 78.4034 33.757 78.6728 33.5578C78.9482 33.3644 79.165 33.0364 79.3232 32.5734L79.6308 31.756L76.291 22.2902H78.5938L80.6064 28.7414Z" fill="#FF4700"/>
<path d="M51.6908 20.1462C51.9162 20.7412 51.5104 21.7676 50.1322 22.718C50.1684 22.7326 50.2046 22.747 50.2388 22.7628C51.064 23.1326 50.746 23.889 50.3764 24.761C49.9536 25.7654 49.3748 27.1384 49.7918 28.9258C50.061 30.0798 50.4808 30.8548 51.002 31.168C51.337 31.3694 51.6372 31.3322 51.788 31.291C51.9492 31.2496 52.1128 31.3238 52.1886 31.4654C52.1994 31.4858 52.2082 31.507 52.215 31.5294C52.2718 31.7124 52.1706 31.9092 51.9884 31.9642C50.7038 32.366 49.762 31.8604 48.888 30.2272C48.7212 29.9156 48.5572 29.561 48.392 29.1652C47.4228 26.8238 48.1552 23.5186 48.3112 22.8796C48.343 22.7508 48.4194 22.6428 48.5266 22.5728C48.7078 22.4584 49.0282 22.3766 49.5852 22.5252C51.25 21.4978 51.3592 20.5588 51.2626 20.306C51.2348 20.2299 51.1916 20.1878 51.1184 20.1669C50.8908 20.1033 50.4588 20.2704 50.2156 20.462C50.1178 20.5399 49.9732 20.5205 49.8966 20.4208C49.817 20.3202 49.8342 20.1786 49.9338 20.0996C50.2142 19.8806 50.7918 19.5997 51.2388 19.7261C51.4532 19.789 51.6076 19.9331 51.6908 20.1462Z" fill="#E21616"/>
</svg>
